<?xml version="1.0" standalone="no"?>
<!DOCTYPE svg PUBLIC "-//W3C//DTD SVG 20010904//EN"
 "http://www.w3.org/TR/2001/REC-SVG-20010904/DTD/svg10.dtd">
<svg version="1.0" xmlns="http://www.w3.org/2000/svg"
 width="512.000000pt" height="512.000000pt" viewBox="0 0 512.000000 512.000000"
 preserveAspectRatio="xMidYMid meet">
<metadata>
Created by potrace 1.14, written by Peter Selinger 2001-2017
</metadata>
<g transform="translate(0.000000,512.000000) scale(0.100000,-0.100000)"
fill="#000000" stroke="none">
<path d="M368 5105 c-32 -8 -81 -26 -109 -41 -68 -34 -169 -135 -203 -201 -59
-117 -56 15 -56 -2313 0 -2076 1 -2137 20 -2196 29 -95 69 -161 133 -220 69
-64 137 -101 221 -119 50 -11 460 -14 2191 -14 2330 -1 2180 -4 2299 56 51 26
186 153 186 175 0 6 6 19 13 27 8 9 22 41 33 71 18 54 19 112 21 2210 1 1986
0 2160 -15 2222 -10 37 -23 73 -30 80 -6 6 -12 17 -12 24 0 13 -67 104 -90
120 -8 7 -26 22 -40 34 -28 24 -75 50 -142 77 -40 17 -168 18 -2203 20 -1817
1 -2169 -1 -2217 -12z m434 -1534 c3 -1224 3 -1230 24 -1257 44 -60 66 -68
185 -72 l109 -4 0 -960 0 -959 -347 3 c-341 3 -349 3 -379 25 -17 12 -40 35
-50 50 -18 27 -19 91 -22 2143 -2 1615 0 2124 9 2152 13 41 38 68 84 92 24 13
66 16 207 16 l178 0 2 -1229z m1280 0 c3 -1224 3 -1230 24 -1257 44 -60 66
-68 185 -72 l109 -4 0 -959 0 -959 -480 0 -480 0 0 960 0 960 95 0 c113 0 151
13 191 66 l29 37 3 1229 2 1228 160 0 160 0 2 -1229z m1280 2 l3 -1228 22 -31
c41 -58 68 -68 186 -72 l107 -4 0 -959 0 -959 -480 0 -480 0 0 960 0 960 94 0
c111 0 153 14 193 67 l28 36 3 1229 2 1228 160 0 160 0 2 -1227z m1364 1201
c15 -11 37 -33 48 -48 l21 -27 3 -2125 c2 -2348 8 -2166 -64 -2220 l-37 -29
-349 -3 -348 -3 0 960 0 959 108 4 c101 3 111 5 145 31 71 54 67 -33 67 1314
l0 1214 189 -3 c173 -3 192 -5 217 -24z"/>
</g>
</svg>
